<svg width="140" height="33" viewBox="0 0 140 33" fill="none" xmlns="http://www.w3.org/2000/svg">
<path d="M130.11 9.67352L125.829 10.0581L125.872 11.8099H129.982V26.9781C129.982 28.7726 130.41 30.1399 131.352 31.0799C132.251 32.0199 133.621 32.4899 135.376 32.4899C137.132 32.4899 138.63 32.2335 139.914 31.7208V29.6699C138.63 29.969 137.26 30.1399 135.933 30.1826C134.734 30.1826 133.835 29.9262 133.321 29.4135C132.807 28.9008 132.55 28.0462 132.55 26.8072V11.8953H139.743V9.63079H132.55V3.09352H130.453L130.11 9.67352Z" fill="white"/>
<path d="M130.11 9.67352L125.829 10.0581L125.872 11.8099H129.982V26.9781C129.982 28.7726 130.41 30.1399 131.352 31.0799C132.251 32.0199 133.621 32.4899 135.376 32.4899C137.132 32.4899 138.63 32.2335 139.914 31.7208V29.6699C138.63 29.969 137.26 30.1399 135.933 30.1826C134.734 30.1826 133.835 29.9262 133.321 29.4135C132.807 28.9008 132.55 28.0462 132.55 26.8072V11.8953H139.743V9.63079H132.55V3.09352H130.453L130.11 9.67352Z" fill="url(#paint0_linear_2554_520)"/>
<path d="M107.633 9.58806H105.364V32.0626H107.933V14.1171C110.758 12.1944 113.67 11.2544 116.667 11.2544C118.336 11.2544 119.492 11.6817 120.263 12.579C121.034 13.4335 121.419 14.8862 121.419 16.809V32.0626H123.945V15.6981C123.945 13.4762 123.388 11.7672 122.232 10.6135C121.076 9.50261 119.407 8.90443 117.223 8.90443C115.596 8.90443 114.012 9.20352 112.514 9.75897C110.844 10.3572 109.303 11.169 107.89 12.1944L107.633 9.58806Z" fill="white"/>
<path d="M107.633 9.58806H105.364V32.0626H107.933V14.1171C110.758 12.1944 113.67 11.2544 116.667 11.2544C118.336 11.2544 119.492 11.6817 120.263 12.579C121.034 13.4335 121.419 14.8862 121.419 16.809V32.0626H123.945V15.6981C123.945 13.4762 123.388 11.7672 122.232 10.6135C121.076 9.50261 119.407 8.90443 117.223 8.90443C115.596 8.90443 114.012 9.20352 112.514 9.75897C110.844 10.3572 109.303 11.169 107.89 12.1944L107.633 9.58806Z" fill="url(#paint1_linear_2554_520)"/>
<path fill-rule="evenodd" clip-rule="evenodd" d="M93.5474 8.90443C90.2936 8.90443 87.7676 9.97261 85.9694 12.0235C84.1713 14.0744 83.2722 17.0226 83.315 20.7399C83.315 24.7135 84.2141 27.7044 86.0122 29.7126C87.8104 31.7635 90.4648 32.7462 94.0183 32.7462C96.9297 32.7462 99.4985 32.1481 101.596 30.9517V28.8581C99.2844 29.9262 96.7156 30.439 94.1896 30.439C91.3639 30.439 89.2661 29.6699 87.9388 28.1744C86.6116 26.679 85.9266 24.3717 85.8838 21.2526H101.725C101.896 20.1417 102.024 19.0308 101.982 17.8771C101.982 14.9717 101.254 12.7499 99.7982 11.2117C98.3425 9.67352 96.2446 8.90443 93.5474 8.90443ZM93.3762 11.2117C88.6667 11.2117 86.1407 13.8608 85.8838 19.2017H99.4985C99.5413 18.7744 99.5413 18.3044 99.5413 17.749C99.5413 15.6126 99.0276 13.989 97.9572 12.8781C96.9297 11.7672 95.3884 11.2117 93.3762 11.2117Z" fill="white"/>
<path fill-rule="evenodd" clip-rule="evenodd" d="M93.5474 8.90443C90.2936 8.90443 87.7676 9.97261 85.9694 12.0235C84.1713 14.0744 83.2722 17.0226 83.315 20.7399C83.315 24.7135 84.2141 27.7044 86.0122 29.7126C87.8104 31.7635 90.4648 32.7462 94.0183 32.7462C96.9297 32.7462 99.4985 32.1481 101.596 30.9517V28.8581C99.2844 29.9262 96.7156 30.439 94.1896 30.439C91.3639 30.439 89.2661 29.6699 87.9388 28.1744C86.6116 26.679 85.9266 24.3717 85.8838 21.2526H101.725C101.896 20.1417 102.024 19.0308 101.982 17.8771C101.982 14.9717 101.254 12.7499 99.7982 11.2117C98.3425 9.67352 96.2446 8.90443 93.5474 8.90443ZM93.3762 11.2117C88.6667 11.2117 86.1407 13.8608 85.8838 19.2017H99.4985C99.5413 18.7744 99.5413 18.3044 99.5413 17.749C99.5413 15.6126 99.0276 13.989 97.9572 12.8781C96.9297 11.7672 95.3884 11.2117 93.3762 11.2117Z" fill="url(#paint2_linear_2554_520)"/>
<path d="M72.8685 29.4562L65.1193 9.58806H62.3792L71.4557 32.1053H74.1529L83.2722 9.58806H80.5749L72.8685 29.4562Z" fill="white"/>
<path d="M72.8685 29.4562L65.1193 9.58806H62.3792L71.4557 32.1053H74.1529L83.2722 9.58806H80.5749L72.8685 29.4562Z" fill="url(#paint3_linear_2554_520)"/>
<path d="M44.7401 9.58806H42.4709V32.0626H45.0398V14.1171C47.8654 12.1944 50.7768 11.2544 53.7737 11.2544C55.4434 11.2544 56.5994 11.6817 57.37 12.579C58.1407 13.4335 58.526 14.8862 58.526 16.809V32.0626H61.0948V15.6981C61.0948 13.4762 60.4954 11.7672 59.3395 10.6135C58.1835 9.50261 56.5138 8.90443 54.3303 8.90443C52.7034 8.90443 51.1193 9.20352 49.6208 9.75897C47.9511 10.3572 46.4098 11.169 44.9969 12.1944L44.7401 9.58806Z" fill="white"/>
<path d="M44.7401 9.58806H42.4709V32.0626H45.0398V14.1171C47.8654 12.1944 50.7768 11.2544 53.7737 11.2544C55.4434 11.2544 56.5994 11.6817 57.37 12.579C58.1407 13.4335 58.526 14.8862 58.526 16.809V32.0626H61.0948V15.6981C61.0948 13.4762 60.4954 11.7672 59.3395 10.6135C58.1835 9.50261 56.5138 8.90443 54.3303 8.90443C52.7034 8.90443 51.1193 9.20352 49.6208 9.75897C47.9511 10.3572 46.4098 11.169 44.9969 12.1944L44.7401 9.58806Z" fill="url(#paint4_linear_2554_520)"/>
<path d="M37.1193 1.08533H34.4648V32.1053H37.1193V1.08533Z" fill="white"/>
<path d="M37.1193 1.08533H34.4648V32.1053H37.1193V1.08533Z" fill="url(#paint5_linear_2554_520)"/>
<path d="M25.6024 19.7572C25.945 19.7572 26.3303 19.629 26.5872 19.3726C27.1009 18.7744 27.1009 17.9199 26.5872 17.3644C26.3303 17.1081 25.945 16.9799 25.6024 16.9799C25.2599 16.9799 24.9174 17.1081 24.6605 17.3644C24.4037 17.6208 24.2324 18.0053 24.2752 18.3899C24.2752 18.7317 24.4037 19.1162 24.6605 19.3726C24.8746 19.629 25.2599 19.7999 25.6024 19.7572Z" fill="white"/>
<path d="M25.6024 19.7572C25.945 19.7572 26.3303 19.629 26.5872 19.3726C27.1009 18.7744 27.1009 17.9199 26.5872 17.3644C26.3303 17.1081 25.945 16.9799 25.6024 16.9799C25.2599 16.9799 24.9174 17.1081 24.6605 17.3644C24.4037 17.6208 24.2324 18.0053 24.2752 18.3899C24.2752 18.7317 24.4037 19.1162 24.6605 19.3726C24.8746 19.629 25.2599 19.7999 25.6024 19.7572Z" fill="url(#paint6_linear_2554_520)"/>
<path d="M26.5872 31.8917C26.844 31.6353 26.9725 31.2508 26.9725 30.909C26.9725 30.5244 26.8012 30.1826 26.5872 29.8835C26.3303 29.6272 25.945 29.499 25.6024 29.499C25.2599 29.499 24.9174 29.6272 24.6605 29.8835C24.4037 30.1399 24.2324 30.5244 24.2752 30.909C24.2752 31.2508 24.4037 31.6353 24.6605 31.8917C24.8746 32.1481 25.2599 32.319 25.6024 32.2762C25.945 32.2762 26.3303 32.1481 26.5872 31.8917Z" fill="white"/>
<path d="M26.5872 31.8917C26.844 31.6353 26.9725 31.2508 26.9725 30.909C26.9725 30.5244 26.8012 30.1826 26.5872 29.8835C26.3303 29.6272 25.945 29.499 25.6024 29.499C25.2599 29.499 24.9174 29.6272 24.6605 29.8835C24.4037 30.1399 24.2324 30.5244 24.2752 30.909C24.2752 31.2508 24.4037 31.6353 24.6605 31.8917C24.8746 32.1481 25.2599 32.319 25.6024 32.2762C25.945 32.2762 26.3303 32.1481 26.5872 31.8917Z" fill="url(#paint7_linear_2554_520)"/>
<path d="M22.0917 1.29897C21.6636 1.51261 21.2783 1.85443 21.0214 2.23897C20.7217 2.62352 20.5933 3.09352 20.6361 3.60624C20.6361 4.1617 20.8073 4.67442 21.1498 5.1017C21.578 5.5717 22.1346 5.91352 22.7768 6.12715L24.0612 6.55443C24.4465 6.72534 24.8318 6.89624 25.1315 7.19533C25.3028 7.40897 25.4312 7.75079 25.4312 8.04988C25.4312 8.51988 25.2171 8.94715 24.8746 9.20352C24.4465 9.50261 23.8899 9.67352 23.3761 9.63079C22.4771 9.58806 21.5352 9.45988 20.6789 9.16079V10.229C21.4924 10.6135 22.4343 10.8272 23.3761 10.7844C24.4465 10.7844 25.2599 10.5281 25.9021 10.0153C26.5443 9.50261 26.8868 8.77624 26.844 7.96443C26.8868 7.40897 26.7156 6.89624 26.3731 6.46897C26.0734 6.08442 25.5168 5.74261 24.789 5.48624L23.5474 5.01624C23.1193 4.88806 22.6911 4.67443 22.3486 4.37534C22.3486 4.33261 22.3486 4.33261 22.3058 4.28988C21.8777 3.73443 21.9633 2.87988 22.5199 2.45261C22.8624 2.23897 23.2905 2.11079 23.8899 2.11079C24.7462 2.15351 25.5596 2.2817 26.3303 2.53806V1.42715C25.5168 1.12806 24.6605 0.957153 23.8043 0.957153C23.2049 0.957153 22.6055 1.04261 22.0917 1.29897Z" fill="white"/>
<path d="M22.0917 1.29897C21.6636 1.51261 21.2783 1.85443 21.0214 2.23897C20.7217 2.62352 20.5933 3.09352 20.6361 3.60624C20.6361 4.1617 20.8073 4.67442 21.1498 5.1017C21.578 5.5717 22.1346 5.91352 22.7768 6.12715L24.0612 6.55443C24.4465 6.72534 24.8318 6.89624 25.1315 7.19533C25.3028 7.40897 25.4312 7.75079 25.4312 8.04988C25.4312 8.51988 25.2171 8.94715 24.8746 9.20352C24.4465 9.50261 23.8899 9.67352 23.3761 9.63079C22.4771 9.58806 21.5352 9.45988 20.6789 9.16079V10.229C21.4924 10.6135 22.4343 10.8272 23.3761 10.7844C24.4465 10.7844 25.2599 10.5281 25.9021 10.0153C26.5443 9.50261 26.8868 8.77624 26.844 7.96443C26.8868 7.40897 26.7156 6.89624 26.3731 6.46897C26.0734 6.08442 25.5168 5.74261 24.789 5.48624L23.5474 5.01624C23.1193 4.88806 22.6911 4.67443 22.3486 4.37534C22.3486 4.33261 22.3486 4.33261 22.3058 4.28988C21.8777 3.73443 21.9633 2.87988 22.5199 2.45261C22.8624 2.23897 23.2905 2.11079 23.8899 2.11079C24.7462 2.15351 25.5596 2.2817 26.3303 2.53806V1.42715C25.5168 1.12806 24.6605 0.957153 23.8043 0.957153C23.2049 0.957153 22.6055 1.04261 22.0917 1.29897Z" fill="url(#paint8_linear_2554_520)"/>
<path fill-rule="evenodd" clip-rule="evenodd" d="M21.4495 24.9272C21.578 24.1581 21.6636 23.4317 21.6636 22.6626C21.6636 20.7826 21.1927 19.2872 20.2508 18.3472C19.2661 17.3217 17.896 16.809 16.0979 16.809C13.9144 16.809 12.2447 17.4926 11.0459 18.8599C9.84709 20.2272 9.24771 22.1926 9.24771 24.6708C9.24771 27.2772 9.84709 29.2853 11.0459 30.6099C12.2018 31.9344 14 32.6181 16.3547 32.6181C18.3242 32.6181 19.9939 32.2335 21.4067 31.4217V30.0117C19.8654 30.6953 18.1957 31.0372 16.4832 31.0372C14.5994 31.0372 13.2294 30.5244 12.3303 29.5417C11.4312 28.559 11.0031 27.0208 10.9602 24.9272H21.4495ZM10.9174 23.5171C11.0887 20.0135 12.7584 18.219 15.8838 18.219C17.2538 18.219 18.2813 18.6035 18.9664 19.2871C19.6514 20.0135 19.9939 21.1244 19.9939 22.5344C19.9939 22.919 19.9939 23.218 19.9511 23.5171H10.9174Z" fill="white"/>
<path fill-rule="evenodd" clip-rule="evenodd" d="M21.4495 24.9272C21.578 24.1581 21.6636 23.4317 21.6636 22.6626C21.6636 20.7826 21.1927 19.2872 20.2508 18.3472C19.2661 17.3217 17.896 16.809 16.0979 16.809C13.9144 16.809 12.2447 17.4926 11.0459 18.8599C9.84709 20.2272 9.24771 22.1926 9.24771 24.6708C9.24771 27.2772 9.84709 29.2853 11.0459 30.6099C12.2018 31.9344 14 32.6181 16.3547 32.6181C18.3242 32.6181 19.9939 32.2335 21.4067 31.4217V30.0117C19.8654 30.6953 18.1957 31.0372 16.4832 31.0372C14.5994 31.0372 13.2294 30.5244 12.3303 29.5417C11.4312 28.559 11.0031 27.0208 10.9602 24.9272H21.4495ZM10.9174 23.5171C11.0887 20.0135 12.7584 18.219 15.8838 18.219C17.2538 18.219 18.2813 18.6035 18.9664 19.2871C19.6514 20.0135 19.9939 21.1244 19.9939 22.5344C19.9939 22.919 19.9939 23.218 19.9511 23.5171H10.9174Z" fill="url(#paint9_linear_2554_520)"/>
<path d="M11.3884 9.07534L9.37615 1.17079L7.83486 1.12806L10.6177 10.5708H12.159L13.9572 3.17897L15.7554 10.5708H17.3394L20.0795 1.17079H18.6239L16.5688 9.07534L14.7278 1.42715H13.2294L11.3884 9.07534Z" fill="white"/>
<path d="M11.3884 9.07534L9.37615 1.17079L7.83486 1.12806L10.6177 10.5708H12.159L13.9572 3.17897L15.7554 10.5708H17.3394L20.0795 1.17079H18.6239L16.5688 9.07534L14.7278 1.42715H13.2294L11.3884 9.07534Z" fill="url(#paint10_linear_2554_520)"/>
<path fill-rule="evenodd" clip-rule="evenodd" d="M5.00917 1.17079H3.5107L0 10.6135H1.45566L2.31193 8.09261H6.20795L7.06422 10.6135H8.51988L5.00917 1.17079ZM5.77986 7.02441H2.61166L4.19576 2.40987L5.77986 7.02441Z" fill="white"/>
<path fill-rule="evenodd" clip-rule="evenodd" d="M5.00917 1.17079H3.5107L0 10.6135H1.45566L2.31193 8.09261H6.20795L7.06422 10.6135H8.51988L5.00917 1.17079ZM5.77986 7.02441H2.61166L4.19576 2.40987L5.77986 7.02441Z" fill="url(#paint11_linear_2554_520)"/>
<path d="M8.13456 18.6035V17.1081C7.74953 17.0654 7.32175 17.0227 6.89395 16.98L6.89297 16.9799C6.0367 16.9799 5.22324 17.1508 4.4526 17.4926C3.59633 17.9199 2.8685 18.5181 2.2263 19.2444L2.05505 17.1081H0.556575V32.0626H2.26911V20.6544C2.82569 19.9708 3.5107 19.4153 4.28135 19.0308C5.05199 18.689 5.86544 18.4753 6.72171 18.5181C7.11392 18.5181 7.54205 18.5539 8.00611 18.5928L8.13456 18.6035Z" fill="white"/>
<path d="M8.13456 18.6035V17.1081C7.74953 17.0654 7.32175 17.0227 6.89395 16.98L6.89297 16.9799C6.0367 16.9799 5.22324 17.1508 4.4526 17.4926C3.59633 17.9199 2.8685 18.5181 2.2263 19.2444L2.05505 17.1081H0.556575V32.0626H2.26911V20.6544C2.82569 19.9708 3.5107 19.4153 4.28135 19.0308C5.05199 18.689 5.86544 18.4753 6.72171 18.5181C7.11392 18.5181 7.54205 18.5539 8.00611 18.5928L8.13456 18.6035Z" fill="url(#paint12_linear_2554_520)"/>
<defs>
<linearGradient id="paint0_linear_2554_520" x1="-3.21364e-07" y1="16.9677" x2="140" y2="16.9677" gradientUnits="userSpaceOnUse">
<stop offset="0.13211" stop-color="#C3528D"/>
<stop offset="0.28628" stop-color="#E77C6C"/>
<stop offset="1" stop-color="#ECAA60"/>
</linearGradient>
<linearGradient id="paint1_linear_2554_520" x1="-3.21364e-07" y1="16.9677" x2="140" y2="16.9677" gradientUnits="userSpaceOnUse">
<stop offset="0.13211" stop-color="#C3528D"/>
<stop offset="0.28628" stop-color="#E77C6C"/>
<stop offset="1" stop-color="#ECAA60"/>
</linearGradient>
<linearGradient id="paint2_linear_2554_520" x1="-3.21364e-07" y1="16.9677" x2="140" y2="16.9677" gradientUnits="userSpaceOnUse">
<stop offset="0.13211" stop-color="#C3528D"/>
<stop offset="0.28628" stop-color="#E77C6C"/>
<stop offset="1" stop-color="#ECAA60"/>
</linearGradient>
<linearGradient id="paint3_linear_2554_520" x1="-3.21364e-07" y1="16.9677" x2="140" y2="16.9677" gradientUnits="userSpaceOnUse">
<stop offset="0.13211" stop-color="#C3528D"/>
<stop offset="0.28628" stop-color="#E77C6C"/>
<stop offset="1" stop-color="#ECAA60"/>
</linearGradient>
<linearGradient id="paint4_linear_2554_520" x1="-3.21364e-07" y1="16.9677" x2="140" y2="16.9677" gradientUnits="userSpaceOnUse">
<stop offset="0.13211" stop-color="#C3528D"/>
<stop offset="0.28628" stop-color="#E77C6C"/>
<stop offset="1" stop-color="#ECAA60"/>
</linearGradient>
<linearGradient id="paint5_linear_2554_520" x1="-3.21364e-07" y1="16.9677" x2="140" y2="16.9677" gradientUnits="userSpaceOnUse">
<stop offset="0.13211" stop-color="#C3528D"/>
<stop offset="0.28628" stop-color="#E77C6C"/>
<stop offset="1" stop-color="#ECAA60"/>
</linearGradient>
<linearGradient id="paint6_linear_2554_520" x1="-3.21364e-07" y1="16.9677" x2="140" y2="16.9677" gradientUnits="userSpaceOnUse">
<stop offset="0.13211" stop-color="#C3528D"/>
<stop offset="0.28628" stop-color="#E77C6C"/>
<stop offset="1" stop-color="#ECAA60"/>
</linearGradient>
<linearGradient id="paint7_linear_2554_520" x1="-3.21364e-07" y1="16.9677" x2="140" y2="16.9677" gradientUnits="userSpaceOnUse">
<stop offset="0.13211" stop-color="#C3528D"/>
<stop offset="0.28628" stop-color="#E77C6C"/>
<stop offset="1" stop-color="#ECAA60"/>
</linearGradient>
<linearGradient id="paint8_linear_2554_520" x1="-3.21364e-07" y1="16.9677" x2="140" y2="16.9677" gradientUnits="userSpaceOnUse">
<stop offset="0.13211" stop-color="#C3528D"/>
<stop offset="0.28628" stop-color="#E77C6C"/>
<stop offset="1" stop-color="#ECAA60"/>
</linearGradient>
<linearGradient id="paint9_linear_2554_520" x1="-3.21364e-07" y1="16.9677" x2="140" y2="16.9677" gradientUnits="userSpaceOnUse">
<stop offset="0.13211" stop-color="#C3528D"/>
<stop offset="0.28628" stop-color="#E77C6C"/>
<stop offset="1" stop-color="#ECAA60"/>
</linearGradient>
<linearGradient id="paint10_linear_2554_520" x1="-3.21364e-07" y1="16.9677" x2="140" y2="16.9677" gradientUnits="userSpaceOnUse">
<stop offset="0.13211" stop-color="#C3528D"/>
<stop offset="0.28628" stop-color="#E77C6C"/>
<stop offset="1" stop-color="#ECAA60"/>
</linearGradient>
<linearGradient id="paint11_linear_2554_520" x1="-3.21364e-07" y1="16.9677" x2="140" y2="16.9677" gradientUnits="userSpaceOnUse">
<stop offset="0.13211" stop-color="#C3528D"/>
<stop offset="0.28628" stop-color="#E77C6C"/>
<stop offset="1" stop-color="#ECAA60"/>
</linearGradient>
<linearGradient id="paint12_linear_2554_520" x1="-3.21364e-07" y1="16.9677" x2="140" y2="16.9677" gradientUnits="userSpaceOnUse">
<stop offset="0.13211" stop-color="#C3528D"/>
<stop offset="0.28628" stop-color="#E77C6C"/>
<stop offset="1" stop-color="#ECAA60"/>
</linearGradient>
</defs>
</svg>
