<svg width="129" height="7" viewBox="0 0 129 7" fill="none" xmlns="http://www.w3.org/2000/svg">
<path fill-rule="evenodd" clip-rule="evenodd" d="M66.9602 6.08543H66.3608V0.359985H66.9602V6.08543ZM21.1927 4.37676C20.9358 4.76131 20.5505 4.93222 20.0795 4.93222C19.6086 4.93222 19.2233 4.76131 18.9664 4.37676C18.7095 3.99222 18.5811 3.47949 18.5811 2.75312C18.5811 2.06949 18.7095 1.51404 18.9664 1.12949C19.2233 0.744946 19.6086 0.574036 20.1223 0.574036C20.5933 0.574036 20.9786 0.744946 21.2355 1.12949C21.4924 1.51404 21.6208 2.02676 21.6208 2.75312C21.6208 3.47949 21.4924 3.99222 21.1927 4.37676ZM20.0795 4.41949C20.3792 4.41949 20.6361 4.29131 20.7645 4.03494C20.893 3.77858 20.9786 3.35131 20.9786 2.75312C20.9786 2.19767 20.893 1.7704 20.7645 1.47131C20.6361 1.21494 20.3792 1.08676 20.0795 1.08676C19.7798 1.08676 19.523 1.21494 19.3945 1.47131C19.2661 1.72767 19.1804 2.15494 19.1804 2.75312C19.1804 3.30858 19.2661 3.73585 19.3945 4.03494C19.523 4.29131 19.7798 4.41949 20.0795 4.41949ZM7.83476 3.90688C7.6635 4.2487 7.44944 4.46233 7.14974 4.67597C6.85005 4.84688 6.50754 4.93233 6.07941 4.93233C5.69408 4.93233 5.35158 4.84688 5.05188 4.67597C4.75219 4.50506 4.53812 4.2487 4.36687 3.94961C4.19561 3.60779 4.10999 3.22325 4.10999 2.79597C4.10999 2.3687 4.19561 1.98416 4.32405 1.64234C4.49531 1.30052 4.70937 1.08688 5.00907 0.873249C5.30876 0.702339 5.65127 0.616882 6.07941 0.616882C6.67879 0.616882 7.14974 0.830521 7.49225 1.21507C7.83476 1.59961 8.00601 2.11234 8.00601 2.79597C8.09164 3.22325 8.00601 3.60779 7.83476 3.90688ZM6.12222 4.41961C6.55035 4.41961 6.89286 4.29143 7.10693 3.99234C7.32099 3.69324 7.44944 3.3087 7.44944 2.75324C7.44944 2.19779 7.32099 1.81325 7.10693 1.51416C6.89286 1.21507 6.55035 1.08688 6.12222 1.08688C5.69408 1.08688 5.35158 1.21507 5.13751 1.51416C4.92344 1.81325 4.795 2.19779 4.795 2.75324C4.795 3.3087 4.92344 3.69324 5.13751 3.99234C5.39439 4.29143 5.69408 4.41961 6.12222 4.41961ZM3.29664 4.84706H2.61162L0.556575 1.55706V4.84706H0V0.702515H0.685015L2.74006 4.03524V0.702515H3.29664V4.84706ZM9.84719 4.84706H10.4894L12.0307 0.702515H11.3885L10.1897 4.24887L8.99092 0.702515H8.30591L9.84719 4.84706ZM12.7583 4.80363C12.6727 4.88909 12.5871 4.93182 12.4587 4.93182C12.3302 4.93182 12.2446 4.88909 12.159 4.80363C12.0733 4.71818 12.0305 4.63272 12.0305 4.50454C12.0305 4.37636 12.0733 4.29091 12.159 4.20545C12.2446 4.12 12.3302 4.07727 12.4587 4.07727C12.5871 4.07727 12.6727 4.12 12.7583 4.20545C12.844 4.29091 12.8868 4.37636 12.8868 4.50454C12.8868 4.63272 12.844 4.71818 12.7583 4.80363ZM16.312 4.41978C16.0123 4.41978 15.627 4.33433 15.1988 4.20615H15.156V4.67614C15.5413 4.84705 15.8838 4.93251 16.2692 4.93251C16.7829 4.93251 17.1254 4.80433 17.4251 4.59069C17.7248 4.33433 17.8533 4.03524 17.8533 3.65069C17.8533 3.30888 17.7248 3.00978 17.5107 2.79615C17.2967 2.58251 16.9542 2.49706 16.5688 2.49706H16.526H16.4832L17.7248 1.17251V0.702515H15.2844V1.17251H17.0398L15.7982 2.53978V2.92433C15.9695 2.8816 16.1835 2.8816 16.3548 2.8816C16.9542 2.8816 17.2539 3.13796 17.2539 3.60796C17.2539 3.86433 17.1254 4.07796 16.997 4.20615C16.8685 4.33433 16.6117 4.41978 16.312 4.41978ZM23.4189 2.96728H26.4159V2.49634H23.4189V2.96728ZM28.4709 4.84706V0.702515H29.841C30.4404 0.702515 30.9113 0.873421 31.2538 1.21524C31.5963 1.55706 31.7248 2.06978 31.7248 2.75342C31.7248 3.43705 31.5535 3.94978 31.2538 4.2916C30.9113 4.63342 30.4404 4.80433 29.841 4.80433L28.4709 4.84706ZM29.7554 4.37706C30.6544 4.37706 31.0826 3.86433 31.0826 2.83888V2.71069C31.0826 2.19797 30.9541 1.81342 30.7401 1.55706C30.526 1.3007 30.1835 1.17251 29.7554 1.17251H29.0703V4.37706H29.7554ZM32.6239 4.84706H35.1927V4.33433H33.2233V2.92433H34.893V2.45433H33.2233V1.17251H35.1927V0.702515H32.6239V4.84706ZM38.789 4.7187C38.4465 4.84688 38.104 4.88961 37.7615 4.88961C37.1193 4.88961 36.6055 4.7187 36.263 4.33416C35.9205 3.99234 35.7493 3.43688 35.7493 2.75324C35.7493 2.06961 35.9205 1.51416 36.263 1.17234C36.6055 0.787792 37.1193 0.616882 37.7615 0.616882C38.104 0.616882 38.4037 0.659615 38.7034 0.787796V1.30052C38.3609 1.21507 38.0612 1.17234 37.8043 1.17234C37.2906 1.17234 36.948 1.30052 36.6912 1.55689C36.4771 1.81325 36.3487 2.1978 36.3487 2.71052V2.8387C36.3487 3.35143 36.4771 3.73597 36.6912 3.99234C36.9052 4.2487 37.2906 4.37688 37.7615 4.37688C38.0184 4.37688 38.3609 4.33416 38.7462 4.20597L38.789 4.7187ZM39.7309 4.93182C39.8593 4.93182 39.9449 4.88909 40.0306 4.80363L40.0306 4.80357C40.0734 4.71813 40.1162 4.63269 40.159 4.50454C40.159 4.37636 40.1162 4.29091 40.0306 4.20545C39.9449 4.12 39.8593 4.07727 39.7309 4.07727C39.6024 4.07727 39.5168 4.12 39.4312 4.20545C39.3456 4.29091 39.3027 4.37636 39.3027 4.50454C39.3027 4.63272 39.3456 4.71818 39.4312 4.80363C39.5168 4.88909 39.6024 4.93182 39.7309 4.93182ZM44.5687 4.97512H43.9694V4.03512H41.9143V3.56512L43.9694 0.659668H44.5687V3.56512H45.1681V4.07785H44.5687V4.97512ZM43.9694 3.56512V1.51421L42.5137 3.56512H43.9694ZM45.7247 5.74363H46.1529L46.4954 4.67545C46.5117 4.61027 46.528 4.5513 46.542 4.50093L46.542 4.50068L46.5421 4.50061L46.5421 4.50047L46.5421 4.50035L46.5422 4.50028L46.5422 4.50014L46.5422 4.50002L46.5423 4.49991C46.5647 4.41871 46.581 4.35995 46.581 4.33363C46.581 4.24818 46.5382 4.20544 46.4954 4.16272C46.4098 4.12 46.3241 4.12 46.1957 4.12H46.1957H46.0244L45.7247 5.74363ZM51.8042 4.84688H49.0214V4.37688C49.2523 4.12871 49.4611 3.90995 49.6447 3.71756L49.6449 3.71732C49.9038 3.4461 50.1127 3.22729 50.263 3.05234C50.4537 2.83022 50.5973 2.63167 50.7111 2.47417L50.7492 2.42157L50.7893 2.36668L50.8195 2.32597C50.9052 2.15506 50.9908 1.94143 50.9908 1.81325C50.9908 1.59961 50.948 1.47143 50.8195 1.34325C50.6911 1.21507 50.5198 1.17234 50.3058 1.17234C49.9633 1.17234 49.5779 1.34325 49.1498 1.59961V1.08688C49.3639 0.915974 49.5351 0.830521 49.7492 0.745064C49.9633 0.659611 50.1773 0.616882 50.3914 0.616882C50.7339 0.616882 51.0336 0.702343 51.2905 0.915977C51.5045 1.12962 51.633 1.38597 51.633 1.72779C51.633 1.94143 51.5902 2.1978 51.4617 2.41143L51.4377 2.45153C51.3119 2.66162 51.1437 2.94243 50.8623 3.22325C50.6055 3.5223 50.2202 3.9068 49.7493 4.37674L49.7492 4.37688H51.8471V4.84688H51.8042ZM53.9022 4.93222C54.3731 4.93222 54.7584 4.76131 55.0153 4.37676C55.2722 3.99222 55.4006 3.47949 55.4434 2.75312C55.4434 2.02676 55.315 1.51404 55.0581 1.12949C54.8012 0.744946 54.4159 0.574036 53.945 0.574036C53.4312 0.574036 53.0459 0.744946 52.789 1.12949C52.5321 1.51404 52.4037 2.06949 52.4037 2.75312C52.4037 3.47949 52.5321 3.99222 52.789 4.37676C53.0459 4.76131 53.4312 4.93222 53.9022 4.93222ZM54.5872 4.03494C54.4587 4.29131 54.2019 4.41949 53.9022 4.41949C53.5597 4.41949 53.3456 4.29131 53.2171 4.03494C53.0887 3.73585 53.0031 3.30858 53.0031 2.75312C53.0031 2.15494 53.0887 1.72767 53.2171 1.47131C53.3456 1.21494 53.6025 1.08676 53.9022 1.08676C54.2019 1.08676 54.4587 1.21494 54.5872 1.47131C54.7156 1.7704 54.8012 2.19767 54.8012 2.75312C54.8012 3.35131 54.7156 3.77858 54.5872 4.03494ZM58.8257 4.84688H56.0428V4.37688C56.2739 4.12859 56.4828 3.90974 56.6665 3.71728C56.9253 3.44608 57.1342 3.22728 57.2844 3.05234C57.4752 2.83022 57.6188 2.63166 57.7326 2.47417C57.7721 2.4196 57.808 2.36995 57.841 2.32597C57.9266 2.15506 58.0123 1.94143 58.0123 1.81325C58.0123 1.59961 57.9695 1.47143 57.841 1.34325C57.7126 1.21507 57.5413 1.17234 57.3273 1.17234C56.9847 1.17234 56.5994 1.34325 56.1713 1.59961V1.08688C56.3854 0.915974 56.5566 0.830521 56.7707 0.745064C56.9847 0.659611 57.1988 0.616882 57.4129 0.616882C57.7554 0.616882 58.0551 0.702343 58.312 0.915977C58.526 1.12962 58.6545 1.38597 58.6545 1.72779C58.6545 1.94143 58.6117 2.1978 58.4832 2.41143L58.4592 2.4515C58.3334 2.6616 58.1652 2.94242 57.8838 3.22325C57.6269 3.52234 57.2416 3.90688 56.7707 4.37688H58.8685V4.84688H58.8257ZM60.9235 4.93222C61.3945 4.93222 61.7798 4.76131 62.0367 4.37676C62.2935 3.99222 62.422 3.47949 62.4648 2.75312C62.4648 2.02676 62.3364 1.51404 62.0795 1.12949C61.8226 0.744946 61.4373 0.574036 60.9663 0.574036C60.4526 0.574036 60.0672 0.744946 59.8104 1.12949C59.5535 1.51404 59.425 2.06949 59.425 2.75312C59.425 3.47949 59.5535 3.99222 59.8104 4.37676C60.0672 4.76131 60.4526 4.93222 60.9235 4.93222ZM61.6085 4.03494C61.4801 4.29131 61.2232 4.41949 60.9235 4.41949C60.581 4.41949 60.3669 4.29131 60.2385 4.03494C60.1101 3.73585 60.0244 3.30858 60.0244 2.75312C60.0244 2.15494 60.1101 1.72767 60.2385 1.47131C60.3669 1.21494 60.6238 1.08676 60.9235 1.08676C61.2232 1.08676 61.4801 1.21494 61.6085 1.47131C61.737 1.7704 61.8226 2.19767 61.8226 2.75312C61.8226 3.35131 61.737 3.77858 61.6085 4.03494ZM71.113 0.702515V4.84706H73.8531V4.1207H72.0121V0.702515H71.113ZM77.0214 4.84706L76.7217 3.90706H75.3088L75.0092 4.84706H74.0673L75.5229 0.702515H76.5076L77.9633 4.84706H77.0214ZM76.5504 3.26615L76.0367 1.51433L75.5229 3.26615H76.5504ZM78.5627 2.53949C78.734 2.7104 78.9908 2.88131 79.3333 3.00949L79.8471 3.13768C80.104 3.22313 80.2324 3.30858 80.3181 3.39404C80.4037 3.47949 80.4465 3.56495 80.4465 3.69313C80.4465 3.86404 80.4037 3.99222 80.2752 4.07767C80.1468 4.16313 79.9755 4.20586 79.7187 4.20586C79.5474 4.20586 79.3333 4.20586 79.1193 4.16313C78.9766 4.16313 78.8339 4.12514 78.6911 4.08717C78.6198 4.06818 78.5484 4.04919 78.4771 4.03494V4.71858C78.6055 4.80403 78.8195 4.84676 79.0336 4.88948L79.0337 4.88949C79.2905 4.93222 79.5046 4.93222 79.7187 4.93222C80.2324 4.93222 80.6178 4.84676 80.9174 4.5904C81.2171 4.33404 81.3456 4.03494 81.3456 3.60767C81.3456 3.30858 81.2599 3.05222 81.0887 2.88131C80.9174 2.7104 80.6606 2.53949 80.2752 2.41131L79.8471 2.2404C79.5902 2.15495 79.4618 2.11222 79.3762 2.02676C79.2905 1.98404 79.2477 1.89858 79.2477 1.7704C79.2477 1.47131 79.5046 1.3004 79.9755 1.3004C80.3181 1.3004 80.6606 1.34312 81.0459 1.47131V0.787674C80.6606 0.659489 80.2752 0.574036 79.8899 0.574036C79.419 0.574036 79.0337 0.702217 78.7768 0.915855C78.4771 1.12949 78.3486 1.42858 78.3486 1.81313C78.3486 2.11222 78.3914 2.36858 78.5627 2.53949ZM84.6422 4.84706L83.1865 0.702515H84.1712L85.1559 3.94978L86.1406 0.702515H87.1254L85.6697 4.84706H84.6422ZM87.5963 0.702515V4.84706L90.3364 4.80433V4.1207H88.4954V3.05251H89.9939V2.36887H88.4954V1.38615H90.3364V0.702515H87.5963ZM93.0337 4.20597C93.1621 4.20597 93.2906 4.20597 93.4618 4.16325V3.13779H92.6912V2.49688H94.3181V4.59052C94.1468 4.67597 93.89 4.76143 93.6331 4.80415C93.3762 4.84688 93.1193 4.88961 92.8624 4.88961C92.2202 4.88961 91.7065 4.7187 91.364 4.33416C91.0215 3.99234 90.8502 3.43688 90.8502 2.79597C90.8502 2.06961 91.0215 1.55688 91.4068 1.17234C91.7921 0.787792 92.3059 0.616882 92.9909 0.616882C93.4618 0.616882 93.8472 0.702339 94.1897 0.873249V1.55689C93.7615 1.4287 93.419 1.34325 93.0765 1.34325C92.6484 1.34325 92.3059 1.47143 92.0918 1.68506C91.8777 1.8987 91.7921 2.24052 91.7921 2.71052V2.8387C91.7921 3.3087 91.8777 3.65052 92.0918 3.86415C92.2631 4.07779 92.5627 4.20597 93.0337 4.20597ZM97.3578 3.90706L97.6575 4.84706H98.5994L97.1437 0.702515H96.159L94.7034 4.84706H95.6453L95.945 3.90706H97.3578ZM97.1865 3.26615H96.159L96.6728 1.51433L97.1865 3.26615ZM99.9694 3.00949C99.6269 2.88131 99.3701 2.7104 99.1988 2.53949C99.0276 2.36858 98.9847 2.11222 98.9847 1.81313C98.9847 1.42858 99.1132 1.12949 99.4129 0.915855C99.6698 0.702217 100.055 0.574036 100.526 0.574036C100.911 0.574036 101.297 0.659489 101.682 0.787674V1.47131C101.297 1.34312 100.954 1.3004 100.612 1.3004C100.141 1.3004 99.8838 1.47131 99.8838 1.7704C99.8838 1.89858 99.9266 1.98404 100.012 2.02676C100.098 2.11222 100.226 2.15495 100.483 2.2404L100.911 2.41131C101.297 2.53949 101.554 2.7104 101.725 2.88131C101.896 3.05222 101.982 3.30858 101.982 3.60767C101.982 4.03494 101.853 4.33404 101.554 4.5904C101.254 4.84676 100.869 4.93222 100.355 4.93222C100.141 4.93222 99.9266 4.93222 99.6697 4.88949C99.4557 4.84676 99.2416 4.80404 99.1132 4.71858V4.03494C99.1845 4.04919 99.2559 4.06818 99.3272 4.08717C99.47 4.12515 99.6127 4.16313 99.7554 4.16313C99.9694 4.20586 100.184 4.20586 100.355 4.20586C100.612 4.20586 100.783 4.16313 100.911 4.07767C101.04 3.99222 101.083 3.86404 101.083 3.69313C101.083 3.56495 101.04 3.47949 100.954 3.39404C100.869 3.30858 100.74 3.22313 100.483 3.13768L99.9694 3.00949ZM102.667 3.90637L102.324 5.78637H102.881L103.352 4.63274C103.437 4.46183 103.48 4.33364 103.48 4.24818C103.48 4.12 103.437 4.03455 103.352 3.99183C103.266 3.9491 103.138 3.90637 102.923 3.90637H102.667ZM106.734 1.94149V4.80421H105.963V0.659668H106.905L108.575 3.56512V0.659668H109.346V4.80421H108.404L106.734 1.94149ZM110.33 0.702515V4.84706L113.07 4.80433V4.1207H111.229V3.05251H112.728V2.36887H111.229V1.38615H113.07V0.702515H110.33ZM114.826 4.84706L113.37 0.702515H114.355L115.339 3.94978L116.324 0.702515H117.309L115.853 4.84706H114.826ZM119.664 3.90706L119.963 4.84706H120.905L119.45 0.702515H118.465L117.009 4.84706H117.951L118.251 3.90706H119.664ZM118.979 1.51433L119.492 3.26615H118.465L118.979 1.51433ZM121.462 4.84705V0.702515H122.96C123.56 0.702515 124.073 0.873417 124.373 1.25797C124.716 1.59978 124.887 2.11251 124.887 2.79615C124.887 3.43705 124.716 3.94978 124.373 4.33433C124.031 4.71888 123.56 4.88978 122.96 4.88978H121.462V4.84705ZM122.361 1.38615V4.16342H122.875C123.602 4.16342 123.945 3.73615 123.945 2.83887V2.71069C123.945 1.81342 123.602 1.38615 122.875 1.38615H122.361ZM127.755 3.90706L128.055 4.84706H128.997L127.541 0.702515H126.557L125.101 4.84706H126.043L126.343 3.90706H127.755ZM127.541 3.26615H126.514L127.028 1.51433L127.541 3.26615Z" fill="white"/>
</svg>
