<svg width="18" height="18" viewBox="0 0 18 18" fill="none" xmlns="http://www.w3.org/2000/svg">
<g clip-path="url(#clip0_2554_495)">
<path fill-rule="evenodd" clip-rule="evenodd" d="M0 9C0 4.02944 4.02944 0 9 0C13.9706 0 18 4.02944 18 9C18 13.9706 13.9706 18 9 18C4.02944 18 0 13.9706 0 9Z" fill="#0077B5"/>
<path fill-rule="evenodd" clip-rule="evenodd" d="M6.49449 5.55851C6.48125 4.95765 6.05157 4.5 5.35384 4.5C4.65611 4.5 4.19995 4.95765 4.19995 5.55851C4.19995 6.14693 4.64262 6.61776 5.32736 6.61776H5.3404C6.05157 6.61776 6.49449 6.14693 6.49449 5.55851ZM6.36023 7.4542H4.32063V13.5823H6.36023V7.4542ZM11.3674 7.31029C12.7096 7.31029 13.7158 8.18635 13.7158 10.0686L13.7157 13.5823H11.6762V10.3038C11.6762 9.48027 11.381 8.91834 10.6427 8.91834C10.0792 8.91834 9.74358 9.29716 9.59617 9.66306C9.54224 9.79419 9.529 9.97689 9.529 10.16V13.5825H7.48916C7.48916 13.5825 7.51604 8.02939 7.48916 7.45436H9.529V8.32236C9.7997 7.90509 10.2845 7.31029 11.3674 7.31029Z" fill="white"/>
</g>
<defs>
<clipPath id="clip0_2554_495">
<rect width="18" height="18" fill="white"/>
</clipPath>
</defs>
</svg>
