<svg width="46" height="46" viewBox="0 0 46 46" fill="none" xmlns="http://www.w3.org/2000/svg">
<path d="M0.777832 0.777771H2.55561V2.55555H0.777832V0.777771ZM2.55561 0.777771H4.33339V2.55555H2.55561V0.777771ZM4.33339 0.777771H6.11117V2.55555H4.33339V0.777771ZM6.11117 0.777771H7.88894V2.55555H6.11117V0.777771ZM7.88894 0.777771H9.66672V2.55555H7.88894V0.777771ZM9.66672 0.777771H11.4445V2.55555H9.66672V0.777771ZM11.4445 0.777771H13.2223V2.55555H11.4445V0.777771ZM16.7778 0.777771H18.5556V2.55555H16.7778V0.777771ZM29.2223 0.777771H31.0001V2.55555H29.2223V0.777771ZM32.7778 0.777771H34.5556V2.55555H32.7778V0.777771ZM34.5556 0.777771H36.3334V2.55555H34.5556V0.777771ZM36.3334 0.777771H38.1112V2.55555H36.3334V0.777771ZM38.1112 0.777771H39.8889V2.55555H38.1112V0.777771ZM39.8889 0.777771H41.6667V2.55555H39.8889V0.777771ZM41.6667 0.777771H43.4445V2.55555H41.6667V0.777771ZM43.4445 0.777771H45.2223V2.55555H43.4445V0.777771ZM0.777832 2.55555H2.55561V4.33333H0.777832V2.55555ZM11.4445 2.55555H13.2223V4.33333H11.4445V2.55555ZM15.0001 2.55555H16.7778V4.33333H15.0001V2.55555ZM16.7778 2.55555H18.5556V4.33333H16.7778V2.55555ZM20.3334 2.55555H22.1112V4.33333H20.3334V2.55555ZM22.1112 2.55555H23.8889V4.33333H22.1112V2.55555ZM25.6667 2.55555H27.4445V4.33333H25.6667V2.55555ZM27.4445 2.55555H29.2223V4.33333H27.4445V2.55555ZM32.7778 2.55555H34.5556V4.33333H32.7778V2.55555ZM43.4445 2.55555H45.2223V4.33333H43.4445V2.55555ZM0.777832 4.33333H2.55561V6.1111H0.777832V4.33333ZM4.33339 4.33333H6.11117V6.1111H4.33339V4.33333ZM6.11117 4.33333H7.88894V6.1111H6.11117V4.33333ZM7.88894 4.33333H9.66672V6.1111H7.88894V4.33333ZM11.4445 4.33333H13.2223V6.1111H11.4445V4.33333ZM16.7778 4.33333H18.5556V6.1111H16.7778V4.33333ZM18.5556 4.33333H20.3334V6.1111H18.5556V4.33333ZM20.3334 4.33333H22.1112V6.1111H20.3334V4.33333ZM25.6667 4.33333H27.4445V6.1111H25.6667V4.33333ZM27.4445 4.33333H29.2223V6.1111H27.4445V4.33333ZM29.2223 4.33333H31.0001V6.1111H29.2223V4.33333ZM32.7778 4.33333H34.5556V6.1111H32.7778V4.33333ZM36.3334 4.33333H38.1112V6.1111H36.3334V4.33333ZM38.1112 4.33333H39.8889V6.1111H38.1112V4.33333ZM39.8889 4.33333H41.6667V6.1111H39.8889V4.33333ZM43.4445 4.33333H45.2223V6.1111H43.4445V4.33333ZM0.777832 6.1111H2.55561V7.88888H0.777832V6.1111ZM4.33339 6.1111H6.11117V7.88888H4.33339V6.1111ZM6.11117 6.1111H7.88894V7.88888H6.11117V6.1111ZM7.88894 6.1111H9.66672V7.88888H7.88894V6.1111ZM11.4445 6.1111H13.2223V7.88888H11.4445V6.1111ZM15.0001 6.1111H16.7778V7.88888H15.0001V6.1111ZM16.7778 6.1111H18.5556V7.88888H16.7778V6.1111ZM20.3334 6.1111H22.1112V7.88888H20.3334V6.1111ZM23.8889 6.1111H25.6667V7.88888H23.8889V6.1111ZM25.6667 6.1111H27.4445V7.88888H25.6667V6.1111ZM27.4445 6.1111H29.2223V7.88888H27.4445V6.1111ZM32.7778 6.1111H34.5556V7.88888H32.7778V6.1111ZM36.3334 6.1111H38.1112V7.88888H36.3334V6.1111ZM38.1112 6.1111H39.8889V7.88888H38.1112V6.1111ZM39.8889 6.1111H41.6667V7.88888H39.8889V6.1111ZM43.4445 6.1111H45.2223V7.88888H43.4445V6.1111ZM0.777832 7.88888H2.55561V9.66666H0.777832V7.88888ZM4.33339 7.88888H6.11117V9.66666H4.33339V7.88888ZM6.11117 7.88888H7.88894V9.66666H6.11117V7.88888ZM7.88894 7.88888H9.66672V9.66666H7.88894V7.88888ZM11.4445 7.88888H13.2223V9.66666H11.4445V7.88888ZM18.5556 7.88888H20.3334V9.66666H18.5556V7.88888ZM22.1112 7.88888H23.8889V9.66666H22.1112V7.88888ZM25.6667 7.88888H27.4445V9.66666H25.6667V7.88888ZM29.2223 7.88888H31.0001V9.66666H29.2223V7.88888ZM32.7778 7.88888H34.5556V9.66666H32.7778V7.88888ZM36.3334 7.88888H38.1112V9.66666H36.3334V7.88888ZM38.1112 7.88888H39.8889V9.66666H38.1112V7.88888ZM39.8889 7.88888H41.6667V9.66666H39.8889V7.88888ZM43.4445 7.88888H45.2223V9.66666H43.4445V7.88888ZM0.777832 9.66666H2.55561V11.4444H0.777832V9.66666ZM11.4445 9.66666H13.2223V11.4444H11.4445V9.66666ZM15.0001 9.66666H16.7778V11.4444H15.0001V9.66666ZM18.5556 9.66666H20.3334V11.4444H18.5556V9.66666ZM23.8889 9.66666H25.6667V11.4444H23.8889V9.66666ZM27.4445 9.66666H29.2223V11.4444H27.4445V9.66666ZM32.7778 9.66666H34.5556V11.4444H32.7778V9.66666ZM43.4445 9.66666H45.2223V11.4444H43.4445V9.66666ZM0.777832 11.4444H2.55561V13.2222H0.777832V11.4444ZM2.55561 11.4444H4.33339V13.2222H2.55561V11.4444ZM4.33339 11.4444H6.11117V13.2222H4.33339V11.4444ZM6.11117 11.4444H7.88894V13.2222H6.11117V11.4444ZM7.88894 11.4444H9.66672V13.2222H7.88894V11.4444ZM9.66672 11.4444H11.4445V13.2222H9.66672V11.4444ZM11.4445 11.4444H13.2223V13.2222H11.4445V11.4444ZM15.0001 11.4444H16.7778V13.2222H15.0001V11.4444ZM18.5556 11.4444H20.3334V13.2222H18.5556V11.4444ZM22.1112 11.4444H23.8889V13.2222H22.1112V11.4444ZM25.6667 11.4444H27.4445V13.2222H25.6667V11.4444ZM29.2223 11.4444H31.0001V13.2222H29.2223V11.4444ZM32.7778 11.4444H34.5556V13.2222H32.7778V11.4444ZM34.5556 11.4444H36.3334V13.2222H34.5556V11.4444ZM36.3334 11.4444H38.1112V13.2222H36.3334V11.4444ZM38.1112 11.4444H39.8889V13.2222H38.1112V11.4444ZM39.8889 11.4444H41.6667V13.2222H39.8889V11.4444ZM41.6667 11.4444H43.4445V13.2222H41.6667V11.4444ZM43.4445 11.4444H45.2223V13.2222H43.4445V11.4444ZM22.1112 13.2222H23.8889V15H22.1112V13.2222ZM25.6667 13.2222H27.4445V15H25.6667V13.2222ZM29.2223 13.2222H31.0001V15H29.2223V13.2222ZM0.777832 15H2.55561V16.7778H0.777832V15ZM2.55561 15H4.33339V16.7778H2.55561V15ZM4.33339 15H6.11117V16.7778H4.33339V15ZM6.11117 15H7.88894V16.7778H6.11117V15ZM7.88894 15H9.66672V16.7778H7.88894V15ZM11.4445 15H13.2223V16.7778H11.4445V15ZM13.2223 15H15.0001V16.7778H13.2223V15ZM15.0001 15H16.7778V16.7778H15.0001V15ZM16.7778 15H18.5556V16.7778H16.7778V15ZM18.5556 15H20.3334V16.7778H18.5556V15ZM22.1112 15H23.8889V16.7778H22.1112V15ZM23.8889 15H25.6667V16.7778H23.8889V15ZM25.6667 15H27.4445V16.7778H25.6667V15ZM31.0001 15H32.7778V16.7778H31.0001V15ZM34.5556 15H36.3334V16.7778H34.5556V15ZM38.1112 15H39.8889V16.7778H38.1112V15ZM41.6667 15H43.4445V16.7778H41.6667V15ZM0.777832 16.7778H2.55561V18.5555H0.777832V16.7778ZM2.55561 16.7778H4.33339V18.5555H2.55561V16.7778ZM6.11117 16.7778H7.88894V18.5555H6.11117V16.7778ZM9.66672 16.7778H11.4445V18.5555H9.66672V16.7778ZM15.0001 16.7778H16.7778V18.5555H15.0001V16.7778ZM16.7778 16.7778H18.5556V18.5555H16.7778V16.7778ZM23.8889 16.7778H25.6667V18.5555H23.8889V16.7778ZM31.0001 16.7778H32.7778V18.5555H31.0001V16.7778ZM34.5556 16.7778H36.3334V18.5555H34.5556V16.7778ZM41.6667 16.7778H43.4445V18.5555H41.6667V16.7778ZM4.33339 18.5555H6.11117V20.3333H4.33339V18.5555ZM6.11117 18.5555H7.88894V20.3333H6.11117V18.5555ZM11.4445 18.5555H13.2223V20.3333H11.4445V18.5555ZM13.2223 18.5555H15.0001V20.3333H13.2223V18.5555ZM15.0001 18.5555H16.7778V20.3333H15.0001V18.5555ZM16.7778 18.5555H18.5556V20.3333H16.7778V18.5555ZM20.3334 18.5555H22.1112V20.3333H20.3334V18.5555ZM22.1112 18.5555H23.8889V20.3333H22.1112V18.5555ZM27.4445 18.5555H29.2223V20.3333H27.4445V18.5555ZM32.7778 18.5555H34.5556V20.3333H32.7778V18.5555ZM34.5556 18.5555H36.3334V20.3333H34.5556V18.5555ZM38.1112 18.5555H39.8889V20.3333H38.1112V18.5555ZM41.6667 18.5555H43.4445V20.3333H41.6667V18.5555ZM43.4445 18.5555H45.2223V20.3333H43.4445V18.5555ZM0.777832 20.3333H2.55561V22.1111H0.777832V20.3333ZM6.11117 20.3333H7.88894V22.1111H6.11117V20.3333ZM7.88894 20.3333H9.66672V22.1111H7.88894V20.3333ZM13.2223 20.3333H15.0001V22.1111H13.2223V20.3333ZM15.0001 20.3333H16.7778V22.1111H15.0001V20.3333ZM16.7778 20.3333H18.5556V22.1111H16.7778V20.3333ZM18.5556 20.3333H20.3334V22.1111H18.5556V20.3333ZM20.3334 20.3333H22.1112V22.1111H20.3334V20.3333ZM25.6667 20.3333H27.4445V22.1111H25.6667V20.3333ZM27.4445 20.3333H29.2223V22.1111H27.4445V20.3333ZM29.2223 20.3333H31.0001V22.1111H29.2223V20.3333ZM43.4445 20.3333H45.2223V22.1111H43.4445V20.3333ZM0.777832 22.1111H2.55561V23.8889H0.777832V22.1111ZM4.33339 22.1111H6.11117V23.8889H4.33339V22.1111ZM9.66672 22.1111H11.4445V23.8889H9.66672V22.1111ZM11.4445 22.1111H13.2223V23.8889H11.4445V22.1111ZM13.2223 22.1111H15.0001V23.8889H13.2223V22.1111ZM16.7778 22.1111H18.5556V23.8889H16.7778V22.1111ZM20.3334 22.1111H22.1112V23.8889H20.3334V22.1111ZM23.8889 22.1111H25.6667V23.8889H23.8889V22.1111ZM25.6667 22.1111H27.4445V23.8889H25.6667V22.1111ZM27.4445 22.1111H29.2223V23.8889H27.4445V22.1111ZM31.0001 22.1111H32.7778V23.8889H31.0001V22.1111ZM32.7778 22.1111H34.5556V23.8889H32.7778V22.1111ZM36.3334 22.1111H38.1112V23.8889H36.3334V22.1111ZM39.8889 22.1111H41.6667V23.8889H39.8889V22.1111ZM41.6667 22.1111H43.4445V23.8889H41.6667V22.1111ZM43.4445 22.1111H45.2223V23.8889H43.4445V22.1111ZM0.777832 23.8889H2.55561V25.6667H0.777832V23.8889ZM4.33339 23.8889H6.11117V25.6667H4.33339V23.8889ZM6.11117 23.8889H7.88894V25.6667H6.11117V23.8889ZM7.88894 23.8889H9.66672V25.6667H7.88894V23.8889ZM13.2223 23.8889H15.0001V25.6667H13.2223V23.8889ZM15.0001 23.8889H16.7778V25.6667H15.0001V23.8889ZM16.7778 23.8889H18.5556V25.6667H16.7778V23.8889ZM18.5556 23.8889H20.3334V25.6667H18.5556V23.8889ZM22.1112 23.8889H23.8889V25.6667H22.1112V23.8889ZM29.2223 23.8889H31.0001V25.6667H29.2223V23.8889ZM34.5556 23.8889H36.3334V25.6667H34.5556V23.8889ZM38.1112 23.8889H39.8889V25.6667H38.1112V23.8889ZM41.6667 23.8889H43.4445V25.6667H41.6667V23.8889ZM0.777832 25.6667H2.55561V27.4444H0.777832V25.6667ZM4.33339 25.6667H6.11117V27.4444H4.33339V25.6667ZM6.11117 25.6667H7.88894V27.4444H6.11117V25.6667ZM11.4445 25.6667H13.2223V27.4444H11.4445V25.6667ZM13.2223 25.6667H15.0001V27.4444H13.2223V25.6667ZM15.0001 25.6667H16.7778V27.4444H15.0001V25.6667ZM23.8889 25.6667H25.6667V27.4444H23.8889V25.6667ZM25.6667 25.6667H27.4445V27.4444H25.6667V25.6667ZM27.4445 25.6667H29.2223V27.4444H27.4445V25.6667ZM32.7778 25.6667H34.5556V27.4444H32.7778V25.6667ZM34.5556 25.6667H36.3334V27.4444H34.5556V25.6667ZM36.3334 25.6667H38.1112V27.4444H36.3334V25.6667ZM38.1112 25.6667H39.8889V27.4444H38.1112V25.6667ZM41.6667 25.6667H43.4445V27.4444H41.6667V25.6667ZM43.4445 25.6667H45.2223V27.4444H43.4445V25.6667ZM0.777832 27.4444H2.55561V29.2222H0.777832V27.4444ZM4.33339 27.4444H6.11117V29.2222H4.33339V27.4444ZM15.0001 27.4444H16.7778V29.2222H15.0001V27.4444ZM16.7778 27.4444H18.5556V29.2222H16.7778V27.4444ZM22.1112 27.4444H23.8889V29.2222H22.1112V27.4444ZM25.6667 27.4444H27.4445V29.2222H25.6667V27.4444ZM29.2223 27.4444H31.0001V29.2222H29.2223V27.4444ZM31.0001 27.4444H32.7778V29.2222H31.0001V27.4444ZM32.7778 27.4444H34.5556V29.2222H32.7778V27.4444ZM34.5556 27.4444H36.3334V29.2222H34.5556V27.4444ZM36.3334 27.4444H38.1112V29.2222H36.3334V27.4444ZM43.4445 27.4444H45.2223V29.2222H43.4445V27.4444ZM0.777832 29.2222H2.55561V31H0.777832V29.2222ZM4.33339 29.2222H6.11117V31H4.33339V29.2222ZM7.88894 29.2222H9.66672V31H7.88894V29.2222ZM9.66672 29.2222H11.4445V31H9.66672V29.2222ZM11.4445 29.2222H13.2223V31H11.4445V29.2222ZM13.2223 29.2222H15.0001V31H13.2223V29.2222ZM15.0001 29.2222H16.7778V31H15.0001V29.2222ZM16.7778 29.2222H18.5556V31H16.7778V29.2222ZM18.5556 29.2222H20.3334V31H18.5556V29.2222ZM22.1112 29.2222H23.8889V31H22.1112V29.2222ZM23.8889 29.2222H25.6667V31H23.8889V29.2222ZM25.6667 29.2222H27.4445V31H25.6667V29.2222ZM29.2223 29.2222H31.0001V31H29.2223V29.2222ZM31.0001 29.2222H32.7778V31H31.0001V29.2222ZM32.7778 29.2222H34.5556V31H32.7778V29.2222ZM34.5556 29.2222H36.3334V31H34.5556V29.2222ZM36.3334 29.2222H38.1112V31H36.3334V29.2222ZM39.8889 29.2222H41.6667V31H39.8889V29.2222ZM15.0001 31H16.7778V32.7778H15.0001V31ZM18.5556 31H20.3334V32.7778H18.5556V31ZM23.8889 31H25.6667V32.7778H23.8889V31ZM27.4445 31H29.2223V32.7778H27.4445V31ZM29.2223 31H31.0001V32.7778H29.2223V31ZM36.3334 31H38.1112V32.7778H36.3334V31ZM38.1112 31H39.8889V32.7778H38.1112V31ZM0.777832 32.7778H2.55561V34.5555H0.777832V32.7778ZM2.55561 32.7778H4.33339V34.5555H2.55561V32.7778ZM4.33339 32.7778H6.11117V34.5555H4.33339V32.7778ZM6.11117 32.7778H7.88894V34.5555H6.11117V32.7778ZM7.88894 32.7778H9.66672V34.5555H7.88894V32.7778ZM9.66672 32.7778H11.4445V34.5555H9.66672V32.7778ZM11.4445 32.7778H13.2223V34.5555H11.4445V32.7778ZM15.0001 32.7778H16.7778V34.5555H15.0001V32.7778ZM18.5556 32.7778H20.3334V34.5555H18.5556V32.7778ZM20.3334 32.7778H22.1112V34.5555H20.3334V32.7778ZM22.1112 32.7778H23.8889V34.5555H22.1112V32.7778ZM23.8889 32.7778H25.6667V34.5555H23.8889V32.7778ZM25.6667 32.7778H27.4445V34.5555H25.6667V32.7778ZM29.2223 32.7778H31.0001V34.5555H29.2223V32.7778ZM32.7778 32.7778H34.5556V34.5555H32.7778V32.7778ZM36.3334 32.7778H38.1112V34.5555H36.3334V32.7778ZM39.8889 32.7778H41.6667V34.5555H39.8889V32.7778ZM41.6667 32.7778H43.4445V34.5555H41.6667V32.7778ZM43.4445 32.7778H45.2223V34.5555H43.4445V32.7778ZM0.777832 34.5555H2.55561V36.3333H0.777832V34.5555ZM11.4445 34.5555H13.2223V36.3333H11.4445V34.5555ZM18.5556 34.5555H20.3334V36.3333H18.5556V34.5555ZM20.3334 34.5555H22.1112V36.3333H20.3334V34.5555ZM29.2223 34.5555H31.0001V36.3333H29.2223V34.5555ZM36.3334 34.5555H38.1112V36.3333H36.3334V34.5555ZM38.1112 34.5555H39.8889V36.3333H38.1112V34.5555ZM0.777832 36.3333H2.55561V38.1111H0.777832V36.3333ZM4.33339 36.3333H6.11117V38.1111H4.33339V36.3333ZM6.11117 36.3333H7.88894V38.1111H6.11117V36.3333ZM7.88894 36.3333H9.66672V38.1111H7.88894V36.3333ZM11.4445 36.3333H13.2223V38.1111H11.4445V36.3333ZM15.0001 36.3333H16.7778V38.1111H15.0001V36.3333ZM20.3334 36.3333H22.1112V38.1111H20.3334V36.3333ZM27.4445 36.3333H29.2223V38.1111H27.4445V36.3333ZM29.2223 36.3333H31.0001V38.1111H29.2223V36.3333ZM31.0001 36.3333H32.7778V38.1111H31.0001V36.3333ZM32.7778 36.3333H34.5556V38.1111H32.7778V36.3333ZM34.5556 36.3333H36.3334V38.1111H34.5556V36.3333ZM36.3334 36.3333H38.1112V38.1111H36.3334V36.3333ZM39.8889 36.3333H41.6667V38.1111H39.8889V36.3333ZM41.6667 36.3333H43.4445V38.1111H41.6667V36.3333ZM43.4445 36.3333H45.2223V38.1111H43.4445V36.3333ZM0.777832 38.1111H2.55561V39.8889H0.777832V38.1111ZM4.33339 38.1111H6.11117V39.8889H4.33339V38.1111ZM6.11117 38.1111H7.88894V39.8889H6.11117V38.1111ZM7.88894 38.1111H9.66672V39.8889H7.88894V38.1111ZM11.4445 38.1111H13.2223V39.8889H11.4445V38.1111ZM15.0001 38.1111H16.7778V39.8889H15.0001V38.1111ZM16.7778 38.1111H18.5556V39.8889H16.7778V38.1111ZM22.1112 38.1111H23.8889V39.8889H22.1112V38.1111ZM23.8889 38.1111H25.6667V39.8889H23.8889V38.1111ZM31.0001 38.1111H32.7778V39.8889H31.0001V38.1111ZM32.7778 38.1111H34.5556V39.8889H32.7778V38.1111ZM36.3334 38.1111H38.1112V39.8889H36.3334V38.1111ZM38.1112 38.1111H39.8889V39.8889H38.1112V38.1111ZM39.8889 38.1111H41.6667V39.8889H39.8889V38.1111ZM41.6667 38.1111H43.4445V39.8889H41.6667V38.1111ZM43.4445 38.1111H45.2223V39.8889H43.4445V38.1111ZM0.777832 39.8889H2.55561V41.6667H0.777832V39.8889ZM4.33339 39.8889H6.11117V41.6667H4.33339V39.8889ZM6.11117 39.8889H7.88894V41.6667H6.11117V39.8889ZM7.88894 39.8889H9.66672V41.6667H7.88894V39.8889ZM11.4445 39.8889H13.2223V41.6667H11.4445V39.8889ZM15.0001 39.8889H16.7778V41.6667H15.0001V39.8889ZM16.7778 39.8889H18.5556V41.6667H16.7778V39.8889ZM18.5556 39.8889H20.3334V41.6667H18.5556V39.8889ZM23.8889 39.8889H25.6667V41.6667H23.8889V39.8889ZM25.6667 39.8889H27.4445V41.6667H25.6667V39.8889ZM27.4445 39.8889H29.2223V41.6667H27.4445V39.8889ZM29.2223 39.8889H31.0001V41.6667H29.2223V39.8889ZM31.0001 39.8889H32.7778V41.6667H31.0001V39.8889ZM38.1112 39.8889H39.8889V41.6667H38.1112V39.8889ZM39.8889 39.8889H41.6667V41.6667H39.8889V39.8889ZM43.4445 39.8889H45.2223V41.6667H43.4445V39.8889ZM0.777832 41.6667H2.55561V43.4444H0.777832V41.6667ZM11.4445 41.6667H13.2223V43.4444H11.4445V41.6667ZM15.0001 41.6667H16.7778V43.4444H15.0001V41.6667ZM22.1112 41.6667H23.8889V43.4444H22.1112V41.6667ZM23.8889 41.6667H25.6667V43.4444H23.8889V41.6667ZM27.4445 41.6667H29.2223V43.4444H27.4445V41.6667ZM29.2223 41.6667H31.0001V43.4444H29.2223V41.6667ZM31.0001 41.6667H32.7778V43.4444H31.0001V41.6667ZM32.7778 41.6667H34.5556V43.4444H32.7778V41.6667ZM34.5556 41.6667H36.3334V43.4444H34.5556V41.6667ZM36.3334 41.6667H38.1112V43.4444H36.3334V41.6667ZM38.1112 41.6667H39.8889V43.4444H38.1112V41.6667ZM43.4445 41.6667H45.2223V43.4444H43.4445V41.6667ZM0.777832 43.4444H2.55561V45.2222H0.777832V43.4444ZM2.55561 43.4444H4.33339V45.2222H2.55561V43.4444ZM4.33339 43.4444H6.11117V45.2222H4.33339V43.4444ZM6.11117 43.4444H7.88894V45.2222H6.11117V43.4444ZM7.88894 43.4444H9.66672V45.2222H7.88894V43.4444ZM9.66672 43.4444H11.4445V45.2222H9.66672V43.4444ZM11.4445 43.4444H13.2223V45.2222H11.4445V43.4444ZM15.0001 43.4444H16.7778V45.2222H15.0001V43.4444ZM16.7778 43.4444H18.5556V45.2222H16.7778V43.4444ZM22.1112 43.4444H23.8889V45.2222H22.1112V43.4444ZM25.6667 43.4444H27.4445V45.2222H25.6667V43.4444ZM34.5556 43.4444H36.3334V45.2222H34.5556V43.4444ZM36.3334 43.4444H38.1112V45.2222H36.3334V43.4444ZM38.1112 43.4444H39.8889V45.2222H38.1112V43.4444ZM39.8889 43.4444H41.6667V45.2222H39.8889V43.4444ZM41.6667 43.4444H43.4445V45.2222H41.6667V43.4444ZM43.4445 43.4444H45.2223V45.2222H43.4445V43.4444Z" fill="black"/>
</svg>
